<svg width="147" height="21" viewBox="0 0 147 21" fill="none" xmlns="http://www.w3.org/2000/svg">
<path d="M1.325 19.825C1.10833 19.825 0.925 19.7583 0.775 19.625C0.641667 19.5083 0.575 19.3333 0.575 19.1L1.41561e-07 2.075C1.41561e-07 1.55833 0.266667 1.3 0.8 1.3C1.15 1.3 1.375 1.475 1.475 1.825C3.425 1.04167 5.175 0.6 6.725 0.499999C6.90833 0.483332 7.09167 0.474999 7.275 0.474999C7.475 0.458333 7.66667 0.449999 7.85 0.449999C9.68333 0.449999 11.3167 0.816666 12.75 1.55C14.2 2.28333 15.325 3.39167 16.125 4.875C16.7417 6.075 17.05 7.3 17.05 8.55C17.05 9.45 16.8833 10.325 16.55 11.175C16.2333 12.025 15.7583 12.8083 15.125 13.525C14.2083 14.575 13.0667 15.325 11.7 15.775C10.3333 16.225 8.88333 16.45 7.35 16.45C6.56667 16.45 5.775 16.4 4.975 16.3C4.19167 16.1833 3.40833 16.0333 2.625 15.85C2.425 15.8167 2.275 15.7333 2.175 15.6C2.09167 15.45 2.05 15.3083 2.05 15.175C2.05 15.1083 2.06667 15.025 2.1 14.925C2.2 14.5583 2.45833 14.375 2.875 14.375C2.94167 14.375 3 14.3833 3.05 14.4C3.1 14.4 3.15833 14.4083 3.225 14.425C3.95833 14.625 4.70833 14.7833 5.475 14.9C6.24167 15 6.98333 15.05 7.7 15.05C8.96667 15.05 10.15 14.8667 11.25 14.5C12.35 14.1333 13.2833 13.525 14.05 12.675C15.1167 11.4583 15.65 10.0917 15.65 8.575C15.65 7.44167 15.35 6.36667 14.75 5.35C14.0333 4.16667 13.075 3.29167 11.875 2.725C10.6917 2.15833 9.38333 1.875 7.95 1.875C7.68333 1.875 7.4 1.89167 7.1 1.925C6.81667 1.94167 6.53333 1.96667 6.25 2C4.83333 2.18333 3.26667 2.65833 1.55 3.425L2.075 19.05C2.075 19.3167 1.99167 19.5083 1.825 19.625C1.675 19.7583 1.50833 19.825 1.325 19.825ZM27.0189 20.175C25.4023 20.175 23.9939 19.8417 22.7939 19.175C21.6106 18.5083 20.6856 17.5917 20.0189 16.425C19.3689 15.2417 19.0439 13.875 19.0439 12.325C19.0439 10.725 19.3689 9.34167 20.0189 8.175C20.6689 6.99167 21.5856 6.075 22.7689 5.425C23.9689 4.775 25.3856 4.45 27.0189 4.45C28.6856 4.45 30.1106 4.775 31.2939 5.425C32.4939 6.05833 33.4106 6.96667 34.0439 8.15C34.6773 9.31667 34.9939 10.7083 34.9939 12.325C34.9939 13.9083 34.6689 15.2917 34.0189 16.475C33.3689 17.6583 32.4439 18.5667 31.2439 19.2C30.0606 19.85 28.6523 20.175 27.0189 20.175ZM27.0189 18.6C29.0689 18.6 30.6439 18.0417 31.7439 16.925C32.8606 15.8083 33.4189 14.275 33.4189 12.325C33.4189 10.2917 32.8439 8.73333 31.6939 7.65C30.5439 6.56667 28.9856 6.025 27.0189 6.025C25.0523 6.025 23.4939 6.58333 22.3439 7.7C21.1939 8.81667 20.6189 10.3583 20.6189 12.325C20.6189 13.625 20.8939 14.7417 21.4439 15.675C21.9939 16.6083 22.7523 17.3333 23.7189 17.85C24.6856 18.35 25.7856 18.6 27.0189 18.6ZM44.7133 19.55C43.9466 19.55 43.2466 19.2917 42.6133 18.775C41.9799 18.275 41.3883 17.6417 40.8383 16.875C39.8883 15.5417 39.1049 14.0167 38.4883 12.3C37.8716 10.5667 37.2966 8.725 36.7633 6.775C36.7466 6.725 36.7383 6.65 36.7383 6.55C36.7383 6.4 36.7883 6.25833 36.8883 6.125C36.9883 5.975 37.1299 5.88333 37.3133 5.85C37.7799 5.8 38.0883 5.98333 38.2383 6.4C38.3716 7.01667 38.5633 7.73333 38.8133 8.55C39.0799 9.36667 39.3799 10.2167 39.7133 11.1C40.0466 11.9667 40.3883 12.7917 40.7383 13.575C41.0883 14.3583 41.4216 15.0167 41.7383 15.55C42.1716 16.2167 42.6299 16.8 43.1133 17.3C43.6133 17.8 44.1716 18.05 44.7883 18.05C45.1883 18.05 45.5633 17.9167 45.9133 17.65C46.2633 17.3833 46.5883 17.05 46.8883 16.65C47.2049 16.2333 47.4716 15.8333 47.6883 15.45C48.0716 14.7833 48.4549 13.9833 48.8383 13.05C49.2383 12.1 49.6133 11.0667 49.9633 9.95C50.3133 8.81667 50.6299 7.65 50.9133 6.45C50.9633 6.2 51.0799 6.03333 51.2633 5.95C51.4633 5.85 51.6466 5.81667 51.8133 5.85C52.0133 5.86667 52.1716 5.95833 52.2883 6.125C52.4049 6.29167 52.4383 6.49167 52.3883 6.725C52.2383 7.49167 52.0216 8.35 51.7383 9.3C51.4716 10.2333 51.1549 11.1833 50.7883 12.15C50.4383 13.1167 50.0633 14.0167 49.6633 14.85C49.2799 15.6833 48.8966 16.3667 48.5133 16.9C47.9466 17.6833 47.3549 18.3167 46.7383 18.8C46.1216 19.3 45.4466 19.55 44.7133 19.55ZM62.7014 20.025C62.568 20.0417 62.4264 20.05 62.2764 20.05C62.143 20.05 62.0097 20.05 61.8764 20.05C60.393 20.05 59.068 19.7333 57.9014 19.1C56.7347 18.4833 55.818 17.625 55.1514 16.525C54.4847 15.425 54.1514 14.1667 54.1514 12.75C54.1514 11.4167 54.4097 10.1917 54.9264 9.075C55.4597 7.94167 56.2097 7 57.1764 6.25C58.143 5.5 59.2847 5.025 60.6014 4.825C60.7847 4.79167 60.9847 4.76667 61.2014 4.75C61.418 4.73333 61.6347 4.725 61.8514 4.725C62.7514 4.725 63.6847 4.85 64.6514 5.1C65.6347 5.33333 66.4597 5.66667 67.1264 6.1C67.2097 5.91667 67.343 5.80833 67.5264 5.775C67.7097 5.725 67.8597 5.71667 67.9764 5.75C68.1597 5.76667 68.3014 5.85 68.4014 6C68.5014 6.15 68.5514 6.325 68.5514 6.525C68.5347 6.90833 68.518 7.28333 68.5014 7.65C68.5014 8.01667 68.5014 8.38333 68.5014 8.75C68.5014 10.6167 68.6347 12.275 68.9014 13.725C69.1847 15.175 69.7097 16.4417 70.4764 17.525C70.5764 17.675 70.6264 17.825 70.6264 17.975C70.6264 18.175 70.543 18.3417 70.3764 18.475C70.2264 18.6083 70.0597 18.675 69.8764 18.675C69.6264 18.675 69.418 18.5667 69.2514 18.35C69.0847 18.1167 68.918 17.8583 68.7514 17.575C68.6014 17.2917 68.4764 17.0417 68.3764 16.825C67.693 17.775 66.8597 18.5083 65.8764 19.025C64.893 19.5583 63.8347 19.8917 62.7014 20.025ZM62.2014 18.575C63.3347 18.575 64.3764 18.2583 65.3264 17.625C66.293 16.9917 67.0764 16.125 67.6764 15.025C67.4264 14.0917 67.243 13.0083 67.1264 11.775C67.0097 10.5417 66.9597 9.25833 66.9764 7.925C66.643 7.55833 66.2014 7.25 65.6514 7C65.1014 6.75 64.5014 6.55833 63.8514 6.425C63.2014 6.29167 62.5597 6.225 61.9264 6.225C61.5097 6.225 61.118 6.25 60.7514 6.3C60.3847 6.35 60.043 6.44167 59.7264 6.575C58.4597 7.04167 57.4514 7.825 56.7014 8.925C55.968 10.0083 55.6014 11.25 55.6014 12.65C55.6014 13.8833 55.893 14.9417 56.4764 15.825C57.0764 16.7083 57.8764 17.3917 58.8764 17.875C59.8764 18.3417 60.9847 18.575 62.2014 18.575ZM76.2328 19.7C76.0161 19.7 75.8328 19.625 75.6828 19.475C75.5495 19.3417 75.4828 19.1667 75.4828 18.95C75.4328 18.0333 75.3495 17.0417 75.2328 15.975C75.1328 14.9083 74.9995 13.825 74.8328 12.725C74.6828 11.6083 74.5078 10.55 74.3078 9.55C74.1078 8.53333 73.8995 7.63333 73.6828 6.85C73.6495 6.71667 73.6328 6.625 73.6328 6.575C73.6328 6.35833 73.7078 6.19167 73.8578 6.075C74.0245 5.95833 74.1995 5.9 74.3828 5.9C74.5495 5.9 74.6995 5.95 74.8328 6.05C74.9828 6.13333 75.0828 6.25833 75.1328 6.425C75.3161 7.00833 75.4911 7.7 75.6578 8.5C75.8245 9.3 75.9745 10.1083 76.1078 10.925C76.2411 11.725 76.3411 12.4333 76.4078 13.05C76.7245 11.7333 77.2578 10.6 78.0078 9.65C78.7745 8.68333 79.6995 7.94167 80.7828 7.425C81.8828 6.90833 83.0745 6.65 84.3578 6.65C85.4078 6.65 86.4661 6.84167 87.5328 7.225C87.8661 7.375 88.0328 7.6 88.0328 7.9C88.0328 8.4 87.7911 8.65 87.3078 8.65C87.1911 8.65 87.0995 8.64167 87.0328 8.625C86.2328 8.35833 85.3578 8.225 84.4078 8.225C83.0411 8.225 81.8911 8.5 80.9578 9.05C80.0245 9.6 79.2661 10.3667 78.6828 11.35C78.1161 12.3333 77.6995 13.4667 77.4328 14.75C77.1661 16.0333 77.0161 17.4167 76.9828 18.9C76.9828 19.1667 76.8995 19.3667 76.7328 19.5C76.5828 19.6333 76.4161 19.7 76.2328 19.7ZM93.3215 10.5C92.2548 10.5 91.3965 10.1667 90.7465 9.5C90.0965 8.83333 89.7715 8.01667 89.7715 7.05C89.7715 6.01667 90.0965 5.18333 90.7465 4.55C91.3965 3.91667 92.2548 3.6 93.3215 3.6C94.0215 3.6 94.6382 3.75833 95.1715 4.075C95.7048 4.375 96.1132 4.78333 96.3965 5.3C96.6965 5.81667 96.8465 6.4 96.8465 7.05C96.8465 7.7 96.6965 8.28333 96.3965 8.8C96.0965 9.31667 95.6798 9.73333 95.1465 10.05C94.6132 10.35 94.0048 10.5 93.3215 10.5ZM93.3215 9C93.9882 9 94.4965 8.81667 94.8465 8.45C95.1965 8.08333 95.3715 7.61667 95.3715 7.05C95.3715 6.43333 95.1882 5.95833 94.8215 5.625C94.4548 5.275 93.9548 5.1 93.3215 5.1C92.6548 5.1 92.1465 5.28333 91.7965 5.65C91.4465 6 91.2715 6.46667 91.2715 7.05C91.2715 7.65 91.4548 8.125 91.8215 8.475C92.1882 8.825 92.6882 9 93.3215 9ZM93.3215 19.7C93.0548 19.7 92.8632 19.625 92.7465 19.475C92.6298 19.3417 92.5632 19.1833 92.5465 19C92.4965 17.7667 92.4715 16.5 92.4715 15.2C92.4715 14.1 92.4965 13.075 92.5465 12.125C92.5632 11.8583 92.6548 11.675 92.8215 11.575C93.0048 11.4583 93.1798 11.4167 93.3465 11.45C93.5465 11.45 93.7132 11.525 93.8465 11.675C93.9798 11.825 94.0465 12.0167 94.0465 12.25C94.0132 12.4167 93.9882 12.775 93.9715 13.325C93.9548 13.875 93.9465 14.4833 93.9465 15.15C93.9465 15.6833 93.9465 16.2167 93.9465 16.75C93.9632 17.2667 93.9798 17.7167 93.9965 18.1C94.0132 18.4833 94.0298 18.7417 94.0465 18.875C94.0465 19.1583 93.9715 19.3667 93.8215 19.5C93.6715 19.6333 93.5048 19.7 93.3215 19.7ZM100.854 12C100.604 12 100.412 11.9167 100.279 11.75C100.162 11.5833 100.104 11.4167 100.104 11.25C100.104 11.0333 100.17 10.8583 100.304 10.725C100.454 10.575 100.637 10.5 100.854 10.5H107.629C107.912 10.5 108.104 10.5833 108.204 10.75C108.32 10.9 108.379 11.0667 108.379 11.25C108.379 11.4333 108.312 11.6083 108.179 11.775C108.045 11.925 107.862 12 107.629 12H100.854ZM113.404 19.8C113.187 19.8 113.004 19.725 112.854 19.575C112.72 19.4417 112.654 19.2667 112.654 19.05L112.354 1C112.354 0.733333 112.437 0.541666 112.604 0.425C112.77 0.308333 112.937 0.249999 113.104 0.249999C113.287 0.216666 113.454 0.266666 113.604 0.399999C113.77 0.533332 113.854 0.724999 113.854 0.974999L114.004 9.55C114.487 8.88333 115.179 8.19167 116.079 7.475C116.979 6.75833 118.004 6.05 119.154 5.35C120.304 4.65 121.495 3.975 122.729 3.325C123.979 2.675 125.195 2.08333 126.379 1.55C126.512 1.5 126.629 1.475 126.729 1.475C127.029 1.475 127.245 1.61667 127.379 1.9C127.429 2.01667 127.454 2.13333 127.454 2.25C127.454 2.55 127.312 2.76667 127.029 2.9C126.279 3.26667 125.412 3.7 124.429 4.2C123.462 4.68333 122.462 5.20833 121.429 5.775C120.412 6.34167 119.445 6.925 118.529 7.525C117.629 8.125 116.862 8.70833 116.229 9.275C115.595 9.825 115.187 10.3333 115.004 10.8C115.187 11.2333 115.587 11.7 116.204 12.2C116.837 12.7 117.604 13.2167 118.504 13.75C119.404 14.2667 120.37 14.775 121.404 15.275C122.437 15.7583 123.47 16.2083 124.504 16.625C125.537 17.0417 126.495 17.4 127.379 17.7C127.712 17.8667 127.879 18.0833 127.879 18.35C127.879 18.4833 127.862 18.575 127.829 18.625C127.695 18.9583 127.47 19.125 127.154 19.125C127.104 19.125 127.012 19.1083 126.879 19.075C125.779 18.6583 124.595 18.1917 123.329 17.675C122.062 17.1417 120.812 16.575 119.579 15.975C118.362 15.375 117.262 14.7583 116.279 14.125C115.295 13.475 114.545 12.825 114.029 12.175L114.154 19.025C114.154 19.275 114.07 19.4583 113.904 19.575C113.754 19.6917 113.587 19.7667 113.404 19.8ZM138.922 20.025C138.789 20.0417 138.647 20.05 138.497 20.05C138.364 20.05 138.23 20.05 138.097 20.05C136.614 20.05 135.289 19.7333 134.122 19.1C132.955 18.4833 132.039 17.625 131.372 16.525C130.705 15.425 130.372 14.1667 130.372 12.75C130.372 11.4167 130.63 10.1917 131.147 9.075C131.68 7.94167 132.43 7 133.397 6.25C134.364 5.5 135.505 5.025 136.822 4.825C137.005 4.79167 137.205 4.76667 137.422 4.75C137.639 4.73333 137.855 4.725 138.072 4.725C138.972 4.725 139.905 4.85 140.872 5.1C141.855 5.33333 142.68 5.66667 143.347 6.1C143.43 5.91667 143.564 5.80833 143.747 5.775C143.93 5.725 144.08 5.71667 144.197 5.75C144.38 5.76667 144.522 5.85 144.622 6C144.722 6.15 144.772 6.325 144.772 6.525C144.755 6.90833 144.739 7.28333 144.722 7.65C144.722 8.01667 144.722 8.38333 144.722 8.75C144.722 10.6167 144.855 12.275 145.122 13.725C145.405 15.175 145.93 16.4417 146.697 17.525C146.797 17.675 146.847 17.825 146.847 17.975C146.847 18.175 146.764 18.3417 146.597 18.475C146.447 18.6083 146.28 18.675 146.097 18.675C145.847 18.675 145.639 18.5667 145.472 18.35C145.305 18.1167 145.139 17.8583 144.972 17.575C144.822 17.2917 144.697 17.0417 144.597 16.825C143.914 17.775 143.08 18.5083 142.097 19.025C141.114 19.5583 140.055 19.8917 138.922 20.025ZM138.422 18.575C139.555 18.575 140.597 18.2583 141.547 17.625C142.514 16.9917 143.297 16.125 143.897 15.025C143.647 14.0917 143.464 13.0083 143.347 11.775C143.23 10.5417 143.18 9.25833 143.197 7.925C142.864 7.55833 142.422 7.25 141.872 7C141.322 6.75 140.722 6.55833 140.072 6.425C139.422 6.29167 138.78 6.225 138.147 6.225C137.73 6.225 137.339 6.25 136.972 6.3C136.605 6.35 136.264 6.44167 135.947 6.575C134.68 7.04167 133.672 7.825 132.922 8.925C132.189 10.0083 131.822 11.25 131.822 12.65C131.822 13.8833 132.114 14.9417 132.697 15.825C133.297 16.7083 134.097 17.3917 135.097 17.875C136.097 18.3417 137.205 18.575 138.422 18.575Z" fill="white"/>
</svg>
